  0
SECTION
  2
HEADER
  9
$ACADVER
  1
AC1009
  9
$INSBASE
 10
0.0
 20
0.0
 30
0.0
  9
$EXTMIN
 10
2288.9809511187782
 20
2758.2224243648279
 30
0.0
  9
$EXTMAX
 10
5234.1470459184493
 20
4720.9563879835123
 30
0.0
  9
$LIMMIN
 10
0.0
 20
0.0
  9
$LIMMAX
 10
420.0
 20
297.0
  9
$ORTHOMODE
 70
     0
  9
$REGENMODE
 70
     1
  9
$FILLMODE
 70
     1
  9
$QTEXTMODE
 70
     0
  9
$MIRRTEXT
 70
     0
  9
$DRAGMODE
 70
     2
  9
$LTSCALE
 40
1.0
  9
$OSMODE
 70
   549
  9
$ATTMODE
 70
     1
  9
$TEXTSIZE
 40
2.5
  9
$TRACEWID
 40
1.0
  9
$TEXTSTYLE
  7
STANDARD
  9
$CLAYER
  8
0
  9
$CELTYPE
  6
BYLAYER
  9
$CECOLOR
 62
   256
  9
$DIMSCALE
 40
1.0
  9
$DIMASZ
 40
2.5
  9
$DIMEXO
 40
0.625
  9
$DIMDLI
 40
3.75
  9
$DIMRND
 40
0.0
  9
$DIMDLE
 40
0.0
  9
$DIMEXE
 40
1.25
  9
$DIMTP
 40
0.0
  9
$DIMTM
 40
0.0
  9
$DIMTXT
 40
2.5
  9
$DIMCEN
 40
2.5
  9
$DIMTSZ
 40
0.0
  9
$DIMTOL
 70
     0
  9
$DIMLIM
 70
     0
  9
$DIMTIH
 70
     0
  9
$DIMTOH
 70
     0
  9
$DIMSE1
 70
     0
  9
$DIMSE2
 70
     0
  9
$DIMTAD
 70
     1
  9
$DIMZIN
 70
     8
  9
$DIMBLK
  1

  9
$DIMASO
 70
     1
  9
$DIMSHO
 70
     1
  9
$DIMPOST
  1

  9
$DIMAPOST
  1

  9
$DIMALT
 70
     0
  9
$DIMALTD
 70
     3
  9
$DIMALTF
 40
0.03937007874016
  9
$DIMLFAC
 40
1.0
  9
$DIMTOFL
 70
     1
  9
$DIMTVP
 40
0.0
  9
$DIMTIX
 70
     0
  9
$DIMSOXD
 70
     0
  9
$DIMSAH
 70
     0
  9
$DIMBLK1
  1

  9
$DIMBLK2
  1

  9
$DIMSTYLE
  2
ISO-25
  9
$DIMCLRD
 70
     0
  9
$DIMCLRE
 70
     0
  9
$DIMCLRT
 70
     0
  9
$DIMTFAC
 40
1.0
  9
$DIMGAP
 40
0.625
  9
$LUNITS
 70
     2
  9
$LUPREC
 70
     4
  9
$SKETCHINC
 40
1.0
  9
$FILLETRAD
 40
0.0
  9
$AUNITS
 70
     0
  9
$AUPREC
 70
     0
  9
$MENU
  1
.
  9
$ELEVATION
 40
0.0
  9
$PELEVATION
 40
0.0
  9
$THICKNESS
 40
0.0
  9
$LIMCHECK
 70
     0
  9
$BLIPMODE
 70
     0
  9
$CHAMFERA
 40
0.0
  9
$CHAMFERB
 40
0.0
  9
$SKPOLY
 70
     0
  9
$TDCREATE
 40
2458059.3845657529
  9
$TDUPDATE
 40
2458059.3851379859
  9
$TDINDWG
 40
0.0005833565
  9
$TDUSRTIMER
 40
0.0005833333
  9
$USRTIMER
 70
     1
  9
$ANGBASE
 50
0.0
  9
$ANGDIR
 70
     0
  9
$PDMODE
 70
     0
  9
$PDSIZE
 40
0.0
  9
$PLINEWID
 40
0.0
  9
$COORDS
 70
     1
  9
$SPLFRAME
 70
     0
  9
$SPLINETYPE
 70
     6
  9
$SPLINESEGS
 70
     8
  9
$ATTDIA
 70
     1
  9
$ATTREQ
 70
     1
  9
$HANDLING
 70
     1
  9
$HANDSEED
  5
307
  9
$SURFTAB1
 70
     6
  9
$SURFTAB2
 70
     6
  9
$SURFTYPE
 70
     6
  9
$SURFU
 70
     6
  9
$SURFV
 70
     6
  9
$UCSNAME
  2

  9
$UCSORG
 10
0.0
 20
0.0
 30
0.0
  9
$UCSXDIR
 10
1.0
 20
0.0
 30
0.0
  9
$UCSYDIR
 10
0.0
 20
1.0
 30
0.0
  9
$PUCSNAME
  2

  9
$PUCSORG
 10
0.0
 20
0.0
 30
0.0
  9
$PUCSXDIR
 10
1.0
 20
0.0
 30
0.0
  9
$PUCSYDIR
 10
0.0
 20
1.0
 30
0.0
  9
$USERI1
 70
     0
  9
$USERI2
 70
     0
  9
$USERI3
 70
     0
  9
$USERI4
 70
     0
  9
$USERI5
 70
     0
  9
$USERR1
 40
0.0
  9
$USERR2
 40
0.0
  9
$USERR3
 40
0.0
  9
$USERR4
 40
0.0
  9
$USERR5
 40
0.0
  9
$WORLDVIEW
 70
     1
  9
$SHADEDGE
 70
     3
  9
$SHADEDIF
 70
    70
  9
$TILEMODE
 70
     1
  9
$MAXACTVP
 70
    64
  9
$PLIMCHECK
 70
     0
  9
$PEXTMIN
 10
0.0
 20
0.0
 30
0.0
  9
$PEXTMAX
 10
0.0
 20
0.0
 30
0.0
  9
$PLIMMIN
 10
0.0
 20
0.0
  9
$PLIMMAX
 10
12.0
 20
9.0
  9
$UNITMODE
 70
     0
  9
$VISRETAIN
 70
     1
  9
$PLINEGEN
 70
     0
  9
$PSLTSCALE
 70
     1
  0
ENDSEC
  0
SECTION
  2
TABLES
  0
TABLE
  2
VPORT
 70
     1
  0
VPORT
  2
*ACTIVE
 70
     0
 10
0.0
 20
0.0
 11
1.0
 21
1.0
 12
3733.707756831011
 22
3897.148191753286
 13
0.0
 23
0.0
 14
10.0
 24
10.0
 15
10.0
 25
10.0
 16
0.0
 26
0.0
 36
1.0
 17
0.0
 27
0.0
 37
0.0
 40
3164.0515848032242
 41
2.4250960307298328
 42
50.0
 43
0.0
 44
0.0
 50
0.0
 51
0.0
 71
     0
 72
  1000
 73
     1
 74
     3
 75
     0
 76
     1
 77
     0
 78
     0
  0
ENDTAB
  0
TABLE
  2
LTYPE
 70
     1
  0
LTYPE
  2
CONTINUOUS
 70
     0
  3
Solid line
 72
    65
 73
     0
 40
0.0
  0
ENDTAB
  0
TABLE
  2
LAYER
 70
     2
  0
LAYER
  2
0
 70
     0
 62
     7
  6
CONTINUOUS
  0
LAYER
  2
LINE
 70
     0
 62
    30
  6
CONTINUOUS
  0
ENDTAB
  0
TABLE
  2
STYLE
 70
     2
  0
STYLE
  2
STANDARD
 70
     0
 40
0.0
 41
1.0
 50
0.0
 71
     0
 42
2.5
  3
txt
  4

  0
STYLE
  2
ANNOTATIVE
 70
     0
 40
0.0
 41
1.0
 50
0.0
 71
     0
 42
2.5
  3
txt
  4

  0
ENDTAB
  0
TABLE
  2
VIEW
 70
     0
  0
ENDTAB
  0
TABLE
  2
UCS
 70
     0
  0
ENDTAB
  0
TABLE
  2
APPID
 70
    10
  0
APPID
  2
ACAD
 70
     0
  0
APPID
  2
ACAD_PSEXT
 70
     0
  0
APPID
  2
ACADANNOPO
 70
     0
  0
APPID
  2
ACADANNOTATIVE
 70
     0
  0
APPID
  2
ACAD_DSTYLE_DIMJAG
 70
     0
  0
APPID
  2
ACAD_DSTYLE_DIMTALN
 70
     0
  0
APPID
  2
ACAD_MLEADERVER
 70
     0
  0
APPID
  2
ACAD_NAV_VCDISPLAY
 70
     0
  0
APPID
  2
ACAECLAYERSTANDARD
 70
     0
  0
APPID
  2
ACCMTRANSPARENCY
 70
     0
  0
ENDTAB
  0
TABLE
  2
DIMSTYLE
 70
     3
  0
DIMSTYLE
  2
STANDARD
 70
     0
  3

  4

  5

  6

  7

 40
1.0
 41
0.18
 42
0.0625
 43
0.38
 44
0.18
 45
0.0
 46
0.0
 47
0.0
 48
0.0
140
0.18
141
0.09
142
0.0
143
25.399999999999999
144
1.0
145
0.0
146
1.0
147
0.09
 71
     0
 72
     0
 73
     1
 74
     1
 75
     0
 76
     0
 77
     0
 78
     0
170
     0
171
     2
172
     0
173
     0
174
     0
175
     0
176
     0
177
     0
178
     0
  0
DIMSTYLE
  2
ANNOTATIVE
 70
     0
  3

  4

  5

  6

  7

 40
0.0
 41
2.5
 42
0.625
 43
3.75
 44
1.25
 45
0.0
 46
0.0
 47
0.0
 48
0.0
140
2.5
141
2.5
142
0.0
143
0.03937007874016
144
1.0
145
0.0
146
1.0
147
0.625
 71
     0
 72
     0
 73
     0
 74
     0
 75
     0
 76
     0
 77
     1
 78
     8
170
     0
171
     3
172
     1
173
     0
174
     0
175
     0
176
     0
177
     0
178
     0
  0
DIMSTYLE
  2
ISO-25
 70
     0
  3

  4

  5

  6

  7

 40
1.0
 41
2.5
 42
0.625
 43
3.75
 44
1.25
 45
0.0
 46
0.0
 47
0.0
 48
0.0
140
2.5
141
2.5
142
0.0
143
0.03937007874016
144
1.0
145
0.0
146
1.0
147
0.625
 71
     0
 72
     0
 73
     0
 74
     0
 75
     0
 76
     0
 77
     1
 78
     8
170
     0
171
     3
172
     1
173
     0
174
     0
175
     0
176
     0
177
     0
178
     0
  0
ENDTAB
  0
ENDSEC
  0
SECTION
  2
BLOCKS
  0
BLOCK
  8
0
  2
$MODEL_SPACE
 70
     0
 10
0.0
 20
0.0
 30
0.0
  3
$MODEL_SPACE
  1

  0
ENDBLK
  5
21
  8
0
  0
BLOCK
 67
     1
  8
0
  2
$PAPER_SPACE
 70
     0
 10
0.0
 20
0.0
 30
0.0
  3
$PAPER_SPACE
  1

  0
ENDBLK
  5
D5
 67
     1
  8
0
  0
ENDSEC
  0
SECTION
  2
ENTITIES
  0
LINE
  5
28E
  8
LINE
 10
3028.8736217132468
 20
4487.5676792078812
 30
0.0
 11
3970.0232370216399
 21
4487.5676792078812
 31
0.0
  0
LINE
  5
28F
  8
LINE
 10
3970.0232370216399
 20
4487.5676792078812
 30
0.0
 11
4679.7243570474384
 21
4487.5676792078812
 31
0.0
  0
LINE
  5
290
  8
LINE
 10
4679.7243570474384
 20
4487.5676792078812
 30
0.0
 11
5128.9147220780869
 21
4487.5676792078812
 31
0.0
  0
LINE
  5
291
  8
LINE
 10
5128.9147220780869
 20
4487.5676792078812
 30
0.0
 11
5234.1470459184493
 21
4487.5676792078812
 31
0.0
  0
LINE
  5
292
  8
LINE
 10
4679.7243570474384
 20
4487.5676792078812
 30
0.0
 11
4679.7243570474384
 21
4080.7205218233248
 31
0.0
  0
LINE
  5
293
  8
LINE
 10
4679.7243570474384
 20
4080.7205218233248
 30
0.0
 11
4679.6883741422334
 21
3662.4702179092028
 31
0.0
  0
LINE
  5
294
  8
LINE
 10
4679.6883741422334
 20
3662.4702179092028
 30
0.0
 11
4679.6615404635077
 21
3350.5667121489569
 31
0.0
  0
LINE
  5
295
  8
LINE
 10
4679.7243570474384
 20
4080.7205218233248
 30
0.0
 11
5129.3021203384342
 21
4080.7205218233248
 31
0.0
  0
LINE
  5
296
  8
LINE
 10
5129.3021203384342
 20
4080.7205218233248
 30
0.0
 11
5128.9147220780869
 21
4487.5676792078812
 31
0.0
  0
LINE
  5
297
  8
LINE
 10
4679.7243570474384
 20
3662.4702179092019
 30
0.0
 11
5134.0863862122706
 21
3662.4702179092019
 31
0.0
  0
LINE
  5
298
  8
LINE
 10
4679.7243570474384
 20
3662.4702179092019
 30
0.0
 11
3028.8163316658888
 21
3662.4702179092019
 31
0.0
  0
LINE
  5
299
  8
LINE
 10
3028.8163316658888
 20
3662.4702179092019
 30
0.0
 11
2671.3040502783751
 21
3662.4702179092019
 31
0.0
  0
LINE
  5
29A
  8
LINE
 10
2671.3040502783751
 20
3662.4702179092019
 30
0.0
 11
2288.9809511187782
 21
3662.4702179092019
 31
0.0
  0
LINE
  5
29B
  8
LINE
 10
3970.0232370216399
 20
4487.5676792078812
 30
0.0
 11
3973.1133320021909
 21
3662.4702179092019
 31
0.0
  0
LINE
  5
29C
  8
LINE
 10
4216.8758147831231
 20
3350.5667121489569
 30
0.0
 11
4679.6615404635077
 21
3350.5667121489569
 31
0.0
  0
LINE
  5
29D
  8
LINE
 10
4216.8758147831231
 20
3350.5667121489569
 30
0.0
 11
4069.5402893526571
 21
3350.5667121489569
 31
0.0
  0
LINE
  5
29E
  8
LINE
 10
4069.5402893526571
 20
3350.5667121489569
 30
0.0
 11
3025.775981992198
 21
3350.5667121489569
 31
0.0
  0
LINE
  5
29F
  8
LINE
 10
3025.775981992198
 20
3350.5667121489569
 30
0.0
 11
2803.53411460697
 21
3350.5667121489569
 31
0.0
  0
LINE
  5
2A0
  8
LINE
 10
3953.6254137590099
 20
3004.4475980047878
 30
0.0
 11
4069.6915485236991
 21
3004.4475980047878
 31
0.0
  0
LINE
  5
2A1
  8
LINE
 10
4069.6915485236991
 20
3004.4475980047878
 30
0.0
 11
4216.8129140169867
 21
3004.4475980047878
 31
0.0
  0
LINE
  5
2A2
  8
LINE
 10
4216.8129140169867
 20
3004.4475980047878
 30
0.0
 11
4344.4049976149618
 21
3004.4475980047878
 31
0.0
  0
LINE
  5
2A3
  8
LINE
 10
4069.5402893526571
 20
3350.5667121489569
 30
0.0
 11
4069.6915485236991
 21
3004.4475980047878
 31
0.0
  0
LINE
  5
2A4
  8
LINE
 10
3028.8736217132468
 20
4720.720266225554
 30
0.0
 11
3028.8736217132468
 21
4487.5676792078812
 31
0.0
  0
LINE
  5
2A5
  8
LINE
 10
3028.8736217132468
 20
4487.5676792078812
 30
0.0
 11
3028.839118568314
 21
3990.6496523563578
 31
0.0
  0
LINE
  5
2A6
  8
LINE
 10
3028.839118568314
 20
3990.6496523563578
 30
0.0
 11
3028.8163316658888
 21
3662.4702179091541
 31
0.0
  0
LINE
  5
2A7
  8
LINE
 10
3028.8163316658902
 20
3662.4702179092019
 30
0.0
 11
3025.775981992198
 21
3350.5667121489569
 31
0.0
  0
LINE
  5
2A8
  8
LINE
 10
2671.3040502783751
 20
3662.4702179092019
 30
0.0
 11
2671.3040502783751
 21
3991.5373238938901
 31
0.0
  0
LINE
  5
2A9
  8
LINE
 10
2671.3040502783751
 20
3991.5373238938901
 30
0.0
 11
3028.839118568314
 21
3990.6496523563578
 31
0.0
  0
LINE
  5
2AA
  8
LINE
 10
4216.6390437607206
 20
3662.4702179092019
 30
0.0
 11
4216.8758147831231
 21
3350.5667121489569
 31
0.0
  0
LINE
  5
2AB
  8
LINE
 10
4216.8758147831231
 20
3350.5667121489569
 30
0.0
 11
4216.8129140169867
 21
3004.4475980047878
 31
0.0
  0
LINE
  5
2AC
  8
LINE
 10
4216.8129140169867
 20
3004.4475980047878
 30
0.0
 11
4216.8129140169867
 21
2758.2224243648279
 31
0.0
  0
LINE
  5
2AD
  8
LINE
 10
4679.7243570474384
 20
4080.7205218233248
 30
0.0
 11
3971.5477166517112
 21
4080.5108474634799
 31
0.0
  0
LINE
  5
2AE
  8
LINE
 10
3971.5477166517098
 20
4080.5108474634799
 30
0.0
 11
3028.8454512659541
 21
4081.8538490173491
 31
0.0
  0
LINE
  5
2AF
  8
LINE
 10
3496.5456322732789
 20
4487.5676792078812
 30
0.0
 11
3499.3468609468309
 21
4081.183558780971
 31
0.0
  0
LINE
  5
2B0
  8
LINE
 10
3499.3468609468309
 20
4081.183558780971
 30
0.0
 11
3498.9591744650529
 21
3662.4702179092019
 31
0.0
  0
LINE
  5
2B1
  8
LINE
 10
3496.5456322732789
 20
4487.5676792078812
 30
0.0
 11
3496.5456322732789
 21
4720.720266225554
 31
0.0
  0
LINE
  5
2B2
  8
LINE
 10
3496.5456322732789
 20
4720.720266225554
 30
0.0
 11
4181.5874806307684
 21
4720.9563879835123
 31
0.0
  0
LINE
  5
2B3
  8
LINE
 10
3970.0232370216399
 20
4487.5676792078812
 30
0.0
 11
3969.83491813814
 21
4720.8834006362013
 31
0.0
  0
LINE
  5
2B4
  8
LINE
 10
3028.8736217132468
 20
4720.720266225554
 30
0.0
 11
3496.5456322732789
 21
4720.720266225554
 31
0.0
  0
ENDSEC
  0
EOF
